<svg xmlns="http://www.w3.org/2000/svg" xmlns:xlink="http://www.w3.org/1999/xlink" viewBox="0 0 1920 42.48"><defs><style>.a{fill:none;}.b{fill:#2980b9;}.b,.c,.d,.e,.f,.g{fill-rule:evenodd;}.c{fill:#ea5432;}.d{fill:#9bbb59;}.e{fill:#f39c12;}.f{fill:#c0392b;}.g{fill:#2c3f50;}.h{clip-path:url(#a);}.i{fill:#fff;}.j{fill:#ea5332;}</style><clipPath id="a" transform="translate(0 -2363.65)"><polygon class="a" points="1746 2395.33 1891.2 2395.33 1891.2 2375.41 1746 2375.41 1746 2395.33 1746 2395.33"/></clipPath></defs><title>training360-ribbon-lower</title><polygon class="b" points="0 0 319.92 0 319.92 42.48 0 42.48 0 0 0 0"/><polygon class="c" points="319.92 0 640.08 0 640.08 42.48 319.92 42.48 319.92 0 319.92 0"/><polygon class="d" points="640.08 0 960 0 960 42.48 640.08 42.48 640.08 0 640.08 0"/><polygon class="e" points="960 0 1279.92 0 1279.92 42.48 960 42.48 960 0 960 0"/><polygon class="f" points="1279.92 0 1600.08 0 1600.08 42.48 1279.92 42.48 1279.92 0 1279.92 0"/><polygon class="g" points="1600.08 0 1920 0 1920 42.48 1600.08 42.48 1600.08 0 1600.08 0"/><g class="h"><path class="i" d="M1756.69,2377.72h-4.18v16.79a0.41,0.41,0,0,1-.4.51H1751a0.43,0.43,0,0,1-.46-0.51v-16.79h-4.15a0.42,0.42,0,0,1-.45-0.5v-1.13a0.39,0.39,0,0,1,.43-0.45h10.32a0.39,0.39,0,0,1,.43.45v1.13a0.42,0.42,0,0,1-.46.5h0Z" transform="translate(0 -2363.65)"/><path class="i" d="M1769.78,2394.51a0.49,0.49,0,0,1,0,.35,0.25,0.25,0,0,1-.23.16h-1.42a0.53,0.53,0,0,1-.32-0.09,0.6,0.6,0,0,1-.23-0.31l-3.19-7.77h-3.26v7.62a0.43,0.43,0,0,1-.43.54h-1.07a0.42,0.42,0,0,1-.43-0.51v-18.4a0.39,0.39,0,0,1,.43-0.47h5.08a5.3,5.3,0,0,1,1.79.31,4.21,4.21,0,0,1,1.56,1,4.81,4.81,0,0,1,1.07,1.7,7.19,7.19,0,0,1,.4,2.52,7.91,7.91,0,0,1-.18,1.65,6.18,6.18,0,0,1-.54,1.56,5,5,0,0,1-1,1.3,4.48,4.48,0,0,1-1.47.89Zm-2.28-13.43a4.54,4.54,0,0,0-.26-1.68,2.64,2.64,0,0,0-.73-1,2.54,2.54,0,0,0-1.06-.51,4.68,4.68,0,0,0-1.2-.15h-3.11v7.12h3.05a5.3,5.3,0,0,0,1.15-.13,2.62,2.62,0,0,0,1.07-.53,2.83,2.83,0,0,0,.79-1.14,5.23,5.23,0,0,0,.31-2h0Z" transform="translate(0 -2363.65)"/><path class="i" d="M1773.07,2394.54a0.66,0.66,0,0,1-.21.39,0.65,0.65,0,0,1-.32.09h-1.29c-0.23,0-.29-0.16-0.21-0.48l5.21-18.43a0.49,0.49,0,0,1,.48-0.44h1.39a0.38,0.38,0,0,1,.34.12,0.73,0.73,0,0,1,.13.32l5.21,18.49c0,0.28,0,.42-0.21.42h-1.51a0.5,0.5,0,0,1-.29-0.09,0.67,0.67,0,0,1-.13-0.31l-1.22-4.78h-6.09Zm5.58-11.66-1.19-4.72h-0.07l-1.17,4.64-1.28,5h5Z" transform="translate(0 -2363.65)"/><path class="i" d="M1788,2395h-1.09a0.43,0.43,0,0,1-.46-0.51v-18.34a0.51,0.51,0,0,1,.12-0.42,0.45,0.45,0,0,1,.34-0.1H1788a0.48,0.48,0,0,1,.32.1,0.57,0.57,0,0,1,.1.42v18.34a0.42,0.42,0,0,1-.43.51h0Z" transform="translate(0 -2363.65)"/><path class="i" d="M1794.43,2379.73h-0.07v14.79a0.42,0.42,0,0,1-.43.51h-1a0.43,0.43,0,0,1-.46-0.51v-18.43a0.37,0.37,0,0,1,.4-0.44h1a0.48,0.48,0,0,1,.38.13,2.51,2.51,0,0,1,.25.34l6.72,12.21,1.32,2.46h0.07v-14.61a0.57,0.57,0,0,1,.1-0.42,0.41,0.41,0,0,1,.32-0.1h1a0.41,0.41,0,0,1,.31.1,0.65,0.65,0,0,1,.1.42v18.37a0.4,0.4,0,0,1-.41.48h-0.94a0.5,0.5,0,0,1-.4-0.13,1,1,0,0,1-.25-0.35l-6.64-12Z" transform="translate(0 -2363.65)"/><path class="i" d="M1810,2395h-1.1a0.43,0.43,0,0,1-.44-0.51v-18.34a0.57,0.57,0,0,1,.1-0.42,0.47,0.47,0,0,1,.34-0.1h1.1a0.41,0.41,0,0,1,.31.1,0.56,0.56,0,0,1,.12.42v18.34a0.42,0.42,0,0,1-.43.51h0Z" transform="translate(0 -2363.65)"/><path class="i" d="M1816.45,2379.73h-0.07v14.79a0.42,0.42,0,0,1-.43.51h-1a0.44,0.44,0,0,1-.46-0.51v-18.43a0.37,0.37,0,0,1,.41-0.44h1a0.5,0.5,0,0,1,.4.13,2.6,2.6,0,0,1,.23.34l6.74,12.21,1.32,2.46h0.07v-14.61a0.57,0.57,0,0,1,.1-0.42,0.41,0.41,0,0,1,.32-0.1h1a0.36,0.36,0,0,1,.29.1,0.57,0.57,0,0,1,.1.42v18.37a0.39,0.39,0,0,1-.4.48h-1a0.54,0.54,0,0,1-.4-0.13,1.57,1.57,0,0,1-.25-0.35l-6.64-12Z" transform="translate(0 -2363.65)"/><path class="i" d="M1836.34,2375.44c0.23,0,.54,0,0.91,0a11.39,11.39,0,0,1,1.17.12c0.41,0.06.82,0.13,1.25,0.23a4.66,4.66,0,0,1,1.13.38,0.55,0.55,0,0,1,.32.26,0.78,0.78,0,0,1,0,.38l-0.18.82a1,1,0,0,1-.12.26,0.34,0.34,0,0,1-.34.06c-0.57-.1-1.22-0.19-2-0.28a19,19,0,0,0-2.22-.13,3.58,3.58,0,0,0-2.26.64,4,4,0,0,0-1.29,1.73,8.54,8.54,0,0,0-.59,2.54,29,29,0,0,0-.15,3.06,22.59,22.59,0,0,0,.18,2.87,8.27,8.27,0,0,0,.66,2.43,4.43,4.43,0,0,0,1.35,1.7,3.7,3.7,0,0,0,2.26.64l0.73,0,0.88-.09c0.29,0,.59-0.09.85-0.15a4.92,4.92,0,0,0,.69-0.2v-6h-2.26a0.42,0.42,0,0,1-.46-0.5v-1.11a0.4,0.4,0,0,1,.43-0.47h3.82a0.38,0.38,0,0,1,.37.18,0.59,0.59,0,0,1,.1.32v8.34a1.2,1.2,0,0,1-.15.64,1.17,1.17,0,0,1-.53.38,12.25,12.25,0,0,1-2.16.53,12.68,12.68,0,0,1-2.2.19,6.32,6.32,0,0,1-3.11-.69,5.24,5.24,0,0,1-2.06-1.95,8.75,8.75,0,0,1-1.13-3.07,22.37,22.37,0,0,1-.34-4,28.3,28.3,0,0,1,.25-3.74,10.78,10.78,0,0,1,.94-3.2,5.72,5.72,0,0,1,1.94-2.27,5.47,5.47,0,0,1,3.23-.86h0Z" transform="translate(0 -2363.65)"/><path class="j" d="M1857.13,2388.41a2.64,2.64,0,0,0-.9-2.21,5.38,5.38,0,0,0-2.42-.92l-3.46-.58a0.45,0.45,0,0,1-.44-0.47v-0.76a0.67,0.67,0,0,1,.09-0.37,1.44,1.44,0,0,1,.18-0.22l6.08-5.72h-9.48a0.71,0.71,0,0,1-.26,0,0.26,0.26,0,0,1-.09-0.25v-1a0.24,0.24,0,0,1,.29-0.23h10.89a0.55,0.55,0,0,1,.34.07,0.47,0.47,0,0,1,.1.37V2377c0,0.18,0,.31,0,0.41a0.65,0.65,0,0,1-.16.29l-5.93,5.6,2.58,0.44a9.62,9.62,0,0,1,1.73.5,4.34,4.34,0,0,1,1.37.86,3.89,3.89,0,0,1,.9,1.3,4.82,4.82,0,0,1,.32,1.81,10,10,0,0,1-.51,3.47,5.15,5.15,0,0,1-1.47,2.15,5.69,5.69,0,0,1-2.3,1.08,13.82,13.82,0,0,1-3.05.31c-0.29,0-.66,0-1.09,0s-0.88-.07-1.38-0.13-1-.13-1.42-0.22a7.34,7.34,0,0,1-1.2-.37,0.26,0.26,0,0,1-.19-0.18,0.71,0.71,0,0,1,0-.25l0.1-.5a0.55,0.55,0,0,1,.09-0.19,0.3,0.3,0,0,1,.31-0.07c0.75,0.09,1.54.19,2.36,0.31a21.67,21.67,0,0,0,2.63.16,11.14,11.14,0,0,0,2-.18,4.09,4.09,0,0,0,1.73-.75,3.92,3.92,0,0,0,1.23-1.62,7.08,7.08,0,0,0,.47-2.81h0Z" transform="translate(0 -2363.65)"/><path class="j" d="M1875.34,2389.73a5.71,5.71,0,0,1-.53,2.57,4.81,4.81,0,0,1-1.44,1.71,6.84,6.84,0,0,1-2.14,1,11.87,11.87,0,0,1-2.67.29,9.26,9.26,0,0,1-3.85-.64,4.29,4.29,0,0,1-2-1.87,7.52,7.52,0,0,1-.72-2.91c-0.06-1.14-.1-2.38-0.1-3.77a37,37,0,0,1,.21-3.83,10.34,10.34,0,0,1,1-3.41,5.94,5.94,0,0,1,2.2-2.46,7.13,7.13,0,0,1,3.92-.94c0.29,0,.65,0,1,0s0.82,0.07,1.28.13,0.9,0.13,1.34.23a6.32,6.32,0,0,1,1.19.35,0.26,0.26,0,0,1,.18.18,0.78,0.78,0,0,1,0,.26l-0.09.47a1.48,1.48,0,0,1-.1.22,0.37,0.37,0,0,1-.31.07l-2.16-.29a16.81,16.81,0,0,0-2.42-.15,5.47,5.47,0,0,0-2.76.6,4.3,4.3,0,0,0-1.64,1.59,7.18,7.18,0,0,0-.82,2.31,21,21,0,0,0-.26,2.76l2.17-.23,1.64-.15,1.37-.07h1.34a5,5,0,0,1,3.9,1.4c0.84,0.94,1.26,2.46,1.26,4.56h0Zm-1.7.06a9.17,9.17,0,0,0-.18-1.89,3.57,3.57,0,0,0-.62-1.42,2.72,2.72,0,0,0-1.19-.89,5,5,0,0,0-1.89-.31c-0.57,0-1.37,0-2.38.12s-2.26.2-3.76,0.38v0.67c0,1.1,0,2.09.07,3a6.61,6.61,0,0,0,.54,2.34,3.34,3.34,0,0,0,1.5,1.52,6.34,6.34,0,0,0,2.94.56,11.43,11.43,0,0,0,1.67-.15,4.64,4.64,0,0,0,1.61-.58,3.63,3.63,0,0,0,1.2-1.24,4.2,4.2,0,0,0,.47-2.09h0Z" transform="translate(0 -2363.65)"/><path class="j" d="M1891.12,2385.05c0,0.66,0,1.37-.07,2.15a17.2,17.2,0,0,1-.26,2.3,11.14,11.14,0,0,1-.66,2.19,5.83,5.83,0,0,1-1.2,1.83,5.76,5.76,0,0,1-1.91,1.29,7.27,7.27,0,0,1-2.75.47,7.61,7.61,0,0,1-2.69-.42,5.21,5.21,0,0,1-1.85-1.21,6,6,0,0,1-1.16-1.78,11.08,11.08,0,0,1-.63-2.15,17.33,17.33,0,0,1-.25-2.33q0-1.18,0-2.33c0-.53,0-1.13.06-1.8a18.52,18.52,0,0,1,.26-2.09,11.45,11.45,0,0,1,.63-2.09,6.32,6.32,0,0,1,1.16-1.84,5.13,5.13,0,0,1,1.83-1.32,6.31,6.31,0,0,1,2.67-.5,6.92,6.92,0,0,1,3.7.85,5.49,5.49,0,0,1,2.07,2.22,8.59,8.59,0,0,1,.88,3.09,30.53,30.53,0,0,1,.21,3.48h0Zm-1.64.29c0-1.24-.06-2.4-0.15-3.45a8.12,8.12,0,0,0-.69-2.69,4.17,4.17,0,0,0-1.57-1.73,5.28,5.28,0,0,0-2.79-.63,4.32,4.32,0,0,0-2.64.72,4.64,4.64,0,0,0-1.48,1.89,9.25,9.25,0,0,0-.66,2.72c-0.09,1-.15,2.08-0.15,3.17s0,2.27.13,3.29a8.53,8.53,0,0,0,.65,2.69,4.15,4.15,0,0,0,1.5,1.81,4.75,4.75,0,0,0,6.94-1.87,8.51,8.51,0,0,0,.73-2.69,28.44,28.44,0,0,0,.18-3.23h0Z" transform="translate(0 -2363.65)"/></g></svg>