<svg xmlns="http://www.w3.org/2000/svg" viewBox="0 0 273.9 307.56"><defs><style>.a{fill:#fff;}</style></defs><title>training360-glyph-course</title><path class="a" d="M824.19,225.49a2.26,2.26,0,0,0-.15.36l-0.1.23a2.37,2.37,0,0,0-.08.59V394.9a2.36,2.36,0,0,0,1.31,2.12l134.59,67.29,0.27,0.09a1.8,1.8,0,0,0,1.38.07l0.33-.12L1096.45,397a2.36,2.36,0,0,0,1.31-2.12V226.68a2.34,2.34,0,0,0-.08-0.6l-0.09-.22a2.17,2.17,0,0,0-.16-0.38l-0.16-.2A2.26,2.26,0,0,0,1097,225l-0.72-.52L961.87,157.27a2.39,2.39,0,0,0-2.12,0L824.87,224.72l-0.18.19a1.91,1.91,0,0,0-.34.37ZM1093,393.43l-0.66.33L963.18,458.35V295.44l35.88-17.94,93.95-47V393.43ZM960.81,162l0.53,0.26,128.74,64.37L960.81,291.31l-0.53-.26L831.54,226.68ZM828.6,230.52l129.83,64.92V458.35L828.6,393.43V230.52Z" transform="translate(-823.86 -157.02)"/></svg>