<svg xmlns="http://www.w3.org/2000/svg" xmlns:xlink="http://www.w3.org/1999/xlink" viewBox="0 0 213.05 29.19"><defs><style>.a{fill:none;}.b{clip-path:url(#a);}.c{fill:#fff;}.d{fill:#ea5332;}</style><clipPath id="a" transform="translate(-3799.25 -74.16)"><polygon class="a" points="3799.3 103.44 4012.42 103.44 4012.42 74.16 3799.3 74.16 3799.3 103.44 3799.3 103.44"/></clipPath></defs><title>training360-logo</title><g class="b"><path class="c" d="M3815,77.56h-6.14v24.68a0.61,0.61,0,0,1-.58.75h-1.57a0.63,0.63,0,0,1-.67-0.75V77.56h-6.1a0.61,0.61,0,0,1-.67-0.73V75.17a0.57,0.57,0,0,1,.62-0.67H3815a0.57,0.57,0,0,1,.62.67v1.66a0.61,0.61,0,0,1-.67.73h0Z" transform="translate(-3799.25 -74.16)"/><path class="c" d="M3834.2,102.24a0.72,0.72,0,0,1,0,.52,0.37,0.37,0,0,1-.34.24h-2.09a0.77,0.77,0,0,1-.47-0.13,0.89,0.89,0,0,1-.34-0.45L3826.29,91h-4.78v11.2a0.64,0.64,0,0,1-.62.8h-1.57a0.61,0.61,0,0,1-.62-0.75v-27a0.57,0.57,0,0,1,.62-0.69h7.46a7.77,7.77,0,0,1,2.63.45,6.2,6.2,0,0,1,2.28,1.42,7.07,7.07,0,0,1,1.57,2.49,10.57,10.57,0,0,1,.58,3.7,11.64,11.64,0,0,1-.26,2.43,9.08,9.08,0,0,1-.8,2.3,7.34,7.34,0,0,1-1.44,1.91,6.58,6.58,0,0,1-2.15,1.31Zm-3.34-19.73a6.68,6.68,0,0,0-.39-2.47,3.87,3.87,0,0,0-1.08-1.5,3.72,3.72,0,0,0-1.55-.75,6.86,6.86,0,0,0-1.77-.21h-4.57V88H3826a7.76,7.76,0,0,0,1.68-.19,3.85,3.85,0,0,0,1.57-.77,4.16,4.16,0,0,0,1.16-1.68,7.69,7.69,0,0,0,.45-2.88h0Z" transform="translate(-3799.25 -74.16)"/><path class="c" d="M3839,102.28a1,1,0,0,1-.3.58,1,1,0,0,1-.47.13h-1.9c-0.34,0-.43-0.24-0.3-0.71l7.65-27.09a0.71,0.71,0,0,1,.71-0.65h2a0.56,0.56,0,0,1,.5.17,1.08,1.08,0,0,1,.19.47l7.65,27.17c0.06,0.41,0,.62-0.3.62h-2.22a0.72,0.72,0,0,1-.43-0.13,1,1,0,0,1-.19-0.45l-1.79-7h-8.94Zm8.19-17.13-1.75-6.94h-0.11L3843.64,85l-1.87,7.31H3849Z" transform="translate(-3799.25 -74.16)"/><path class="c" d="M3860.94,103h-1.59a0.63,0.63,0,0,1-.67-0.75v-27a0.75,0.75,0,0,1,.17-0.62,0.65,0.65,0,0,1,.5-0.15h1.59a0.7,0.7,0,0,1,.47.15,0.84,0.84,0,0,1,.15.62v27a0.61,0.61,0,0,1-.62.75h0Z" transform="translate(-3799.25 -74.16)"/><path class="c" d="M3870.38,80.5h-0.11v21.73a0.61,0.61,0,0,1-.62.75h-1.51a0.63,0.63,0,0,1-.67-0.75V75.15a0.54,0.54,0,0,1,.58-0.65h1.53a0.71,0.71,0,0,1,.56.19,3.65,3.65,0,0,1,.37.5l9.87,18,1.94,3.61h0.11V75.28a0.84,0.84,0,0,1,.15-0.62,0.6,0.6,0,0,1,.47-0.15h1.53a0.61,0.61,0,0,1,.45.15,1,1,0,0,1,.15.62v27a0.58,0.58,0,0,1-.6.71h-1.38a0.72,0.72,0,0,1-.58-0.19,1.45,1.45,0,0,1-.37-0.52l-9.74-17.69Z" transform="translate(-3799.25 -74.16)"/><path class="c" d="M3893.26,103h-1.62a0.63,0.63,0,0,1-.65-0.75v-27a0.84,0.84,0,0,1,.15-0.62,0.69,0.69,0,0,1,.5-0.15h1.62a0.61,0.61,0,0,1,.45.15,0.83,0.83,0,0,1,.17.62v27a0.62,0.62,0,0,1-.62.75h0Z" transform="translate(-3799.25 -74.16)"/><path class="c" d="M3902.7,80.5h-0.11v21.73a0.62,0.62,0,0,1-.62.75h-1.53a0.64,0.64,0,0,1-.67-0.75V75.15a0.55,0.55,0,0,1,.6-0.65h1.51a0.73,0.73,0,0,1,.58.19,3.76,3.76,0,0,1,.34.5l9.89,18,1.94,3.61h0.11V75.28a0.84,0.84,0,0,1,.15-0.62,0.6,0.6,0,0,1,.47-0.15h1.53a0.53,0.53,0,0,1,.43.15,0.84,0.84,0,0,1,.15.62v27a0.58,0.58,0,0,1-.58.71h-1.4a0.79,0.79,0,0,1-.58-0.19,2.3,2.3,0,0,1-.37-0.52l-9.74-17.69Z" transform="translate(-3799.25 -74.16)"/><path class="c" d="M3931.89,74.2c0.34,0,.8,0,1.34,0a16.72,16.72,0,0,1,1.72.17c0.6,0.09,1.21.19,1.83,0.34a6.83,6.83,0,0,1,1.66.56,0.81,0.81,0,0,1,.47.39,1.15,1.15,0,0,1,0,.56l-0.26,1.2a1.52,1.52,0,0,1-.17.39,0.5,0.5,0,0,1-.5.09c-0.84-.15-1.79-0.28-2.87-0.41a27.82,27.82,0,0,0-3.25-.19,5.25,5.25,0,0,0-3.32.95,5.82,5.82,0,0,0-1.9,2.54,12.56,12.56,0,0,0-.86,3.74,42.72,42.72,0,0,0-.22,4.49,33.29,33.29,0,0,0,.26,4.21,12.18,12.18,0,0,0,1,3.57,6.51,6.51,0,0,0,2,2.49,5.42,5.42,0,0,0,3.32.95c0.3,0,.67,0,1.08,0l1.29-.13c0.43-.06.86-0.13,1.25-0.21a7.09,7.09,0,0,0,1-.3V90.82h-3.32a0.61,0.61,0,0,1-.67-0.73V88.46a0.59,0.59,0,0,1,.62-0.69h5.6a0.56,0.56,0,0,1,.54.26,0.87,0.87,0,0,1,.15.47v12.25a1.76,1.76,0,0,1-.22.95,1.72,1.72,0,0,1-.78.56,18,18,0,0,1-3.17.77,18.6,18.6,0,0,1-3.23.28,9.25,9.25,0,0,1-4.57-1,7.69,7.69,0,0,1-3-2.86,12.86,12.86,0,0,1-1.66-4.51,32.93,32.93,0,0,1-.5-5.91,41.67,41.67,0,0,1,.37-5.5,15.87,15.87,0,0,1,1.38-4.71,8.39,8.39,0,0,1,2.84-3.33,8,8,0,0,1,4.74-1.27h0Z" transform="translate(-3799.25 -74.16)"/><path class="d" d="M3962.4,93.27a3.88,3.88,0,0,0-1.31-3.25,7.88,7.88,0,0,0-3.56-1.35l-5.08-.86a0.67,0.67,0,0,1-.65-0.69V86a1,1,0,0,1,.13-0.54,2.11,2.11,0,0,1,.26-0.32l8.92-8.41h-13.92a1,1,0,0,1-.39-0.07,0.39,0.39,0,0,1-.13-0.37V74.85a0.35,0.35,0,0,1,.43-0.34h16a0.81,0.81,0,0,1,.5.11,0.69,0.69,0,0,1,.15.54v1.38c0,0.26,0,.45,0,0.6a1,1,0,0,1-.24.43l-8.7,8.23,3.79,0.64a14.19,14.19,0,0,1,2.54.73,6.35,6.35,0,0,1,2,1.27,5.71,5.71,0,0,1,1.31,1.91,7.1,7.1,0,0,1,.47,2.67,14.79,14.79,0,0,1-.75,5.1,7.57,7.57,0,0,1-2.15,3.16,8.34,8.34,0,0,1-3.38,1.59,20.21,20.21,0,0,1-4.48.45c-0.43,0-1,0-1.59-.06s-1.29-.11-2-0.19-1.4-.19-2.09-0.32a10.76,10.76,0,0,1-1.77-.54,0.38,0.38,0,0,1-.28-0.26,1,1,0,0,1,0-.37l0.15-.73a0.82,0.82,0,0,1,.13-0.28,0.43,0.43,0,0,1,.45-0.11c1.1,0.13,2.26.28,3.47,0.45a31.78,31.78,0,0,0,3.86.24,16.34,16.34,0,0,0,2.93-.26,6,6,0,0,0,2.54-1.1,5.77,5.77,0,0,0,1.81-2.39,10.41,10.41,0,0,0,.69-4.13h0Z" transform="translate(-3799.25 -74.16)"/><path class="d" d="M3989.14,95.21a8.4,8.4,0,0,1-.78,3.78,7.07,7.07,0,0,1-2.11,2.52,10.06,10.06,0,0,1-3.15,1.42,17.4,17.4,0,0,1-3.92.43,13.56,13.56,0,0,1-5.65-.95,6.29,6.29,0,0,1-2.89-2.75,11.07,11.07,0,0,1-1.06-4.28c-0.09-1.68-.15-3.5-0.15-5.55a54.46,54.46,0,0,1,.3-5.63,15.22,15.22,0,0,1,1.4-5,8.72,8.72,0,0,1,3.23-3.61,10.44,10.44,0,0,1,5.75-1.38c0.43,0,.95,0,1.53.06s1.21,0.11,1.87.19,1.31,0.19,2,.34a9.28,9.28,0,0,1,1.75.52,0.39,0.39,0,0,1,.26.26,1.15,1.15,0,0,1,0,.39l-0.13.69a2.15,2.15,0,0,1-.15.32,0.55,0.55,0,0,1-.45.11l-3.17-.43a24.65,24.65,0,0,0-3.56-.21,8,8,0,0,0-4.05.88,6.31,6.31,0,0,0-2.41,2.34,10.57,10.57,0,0,0-1.21,3.4,30.93,30.93,0,0,0-.39,4.06l3.19-.34,2.41-.21c0.71,0,1.38-.09,2-0.11l2,0c2.59,0,4.48.69,5.73,2.06s1.85,3.61,1.85,6.71h0Zm-2.5.09a13.5,13.5,0,0,0-.26-2.77,5.25,5.25,0,0,0-.9-2.08,4,4,0,0,0-1.75-1.31,7.37,7.37,0,0,0-2.78-.45c-0.84,0-2,.06-3.49.17s-3.32.3-5.52,0.56v1c0,1.61,0,3.07.11,4.39a9.73,9.73,0,0,0,.8,3.44,4.91,4.91,0,0,0,2.2,2.24,9.3,9.3,0,0,0,4.31.82,16.77,16.77,0,0,0,2.46-.21,6.81,6.81,0,0,0,2.37-.86,5.33,5.33,0,0,0,1.77-1.83,6.19,6.19,0,0,0,.69-3.07h0Z" transform="translate(-3799.25 -74.16)"/><path class="d" d="M4012.31,88.33c0,1,0,2-.11,3.16a25.32,25.32,0,0,1-.39,3.38,16.42,16.42,0,0,1-1,3.22,8.57,8.57,0,0,1-1.77,2.69,8.45,8.45,0,0,1-2.8,1.89,10.64,10.64,0,0,1-4,.69,11.13,11.13,0,0,1-3.94-.62,7.64,7.64,0,0,1-2.71-1.78,8.87,8.87,0,0,1-1.7-2.62,16.32,16.32,0,0,1-.93-3.16,25.54,25.54,0,0,1-.37-3.42q-0.06-1.74-.06-3.42c0-.77,0-1.66.09-2.64a27.27,27.27,0,0,1,.39-3.07,16.87,16.87,0,0,1,.93-3.07,9.3,9.3,0,0,1,1.7-2.71,7.53,7.53,0,0,1,2.69-1.94,9.26,9.26,0,0,1,3.92-.73,10.14,10.14,0,0,1,5.43,1.25,8.06,8.06,0,0,1,3,3.27,12.63,12.63,0,0,1,1.29,4.54,45,45,0,0,1,.3,5.12h0Zm-2.41.43c0-1.83-.09-3.53-0.22-5.07a12,12,0,0,0-1-4,6.12,6.12,0,0,0-2.31-2.54,7.74,7.74,0,0,0-4.09-.92,6.33,6.33,0,0,0-3.88,1.05,6.81,6.81,0,0,0-2.18,2.77,13.6,13.6,0,0,0-1,4c-0.13,1.5-.22,3.05-0.22,4.67s0.06,3.33.19,4.84a12.54,12.54,0,0,0,.95,4,6.1,6.1,0,0,0,2.2,2.67,7,7,0,0,0,10.19-2.75,12.52,12.52,0,0,0,1.08-4,41.87,41.87,0,0,0,.26-4.75h0Z" transform="translate(-3799.25 -74.16)"/></g></svg>