<svg xmlns="http://www.w3.org/2000/svg" viewBox="0 0 274.39 308.11"><defs><style>.a{fill:#fff;}</style></defs><title>training360-glyph-module</title><path class="a" d="M2992.68,225.34a2.42,2.42,0,0,0-.16.37l-0.1.24a2.39,2.39,0,0,0-.08.59V395.05a2.37,2.37,0,0,0,1.32,2.13l134.84,67.41,0.27,0.09a1.78,1.78,0,0,0,1.37.07l0.35-.13,134.93-67.44a2.37,2.37,0,0,0,1.31-2.13V226.53a2.39,2.39,0,0,0-.08-0.61l-0.09-.21a2.64,2.64,0,0,0-.16-0.38l-0.16-.2a2.56,2.56,0,0,0-.23-0.29l-0.21-.16-0.22-.19a1.09,1.09,0,0,1-.3-0.18L3130.6,157a2.38,2.38,0,0,0-2.13,0l-135.12,67.57-0.18.19a2.08,2.08,0,0,0-.34.37Zm136.86,150.17-62.09-31,62.09-31,62.09,31Zm-65-34.89V261.71l62.65-31.33v78.91Zm67.41-31.33V230.38l62.65,31.33v78.91ZM3262,393.58l-0.66.33-129.41,64.7v-79l66.58-33.4a2,2,0,0,0,.34-0.37l0.16-.21a2.51,2.51,0,0,0,.15-0.36l0.1-.25a2.43,2.43,0,0,0,.08-0.59V261.71L3262,230.38v163.2Zm-132.44-231.8,0.53,0.26,129,64.48-62.09,31-0.53-.26L3130.6,224.4l-0.47-.16-0.29,0a2.08,2.08,0,0,0-.59,0l-0.31.05-0.27.1-0.23.08-66.31,33.15-62.09-31Zm-132.44,68.6,62.65,31.33v82.76a2.34,2.34,0,0,0,.09.63,5.65,5.65,0,0,0,.25.58l0.15,0.19a2.08,2.08,0,0,0,.24.3l0.22,0.17,0.21,0.18,0.29,0.16,66,33v79l-130.06-65V230.38Z" transform="translate(-2992.34 -156.74)"/></svg>